<svg width="30" height="32" viewBox="0 0 30 32" fill="none" xmlns="http://www.w3.org/2000/svg">
<g id="Icon  5">
<path id="Oval" opacity="0.15" fill-rule="evenodd" clip-rule="evenodd" d="M15 31.3542C23.2843 31.3542 30 24.6385 30 16.3542C30 8.06998 23.2843 1.35425 15 1.35425C6.71573 1.35425 0 8.06998 0 16.3542C0 24.6385 6.71573 31.3542 15 31.3542Z" fill="#36B37E"/>
<path id="Icon" d="M12.998 21.1345L8.92087 17.0818C8.80694 16.9678 8.74997 16.8214 8.74997 16.6423C8.74997 16.4633 8.80694 16.3168 8.92087 16.2029L9.82419 15.324C9.93812 15.1938 10.0805 15.1287 10.2514 15.1287C10.4223 15.1287 10.5729 15.1938 10.7031 15.324L13.4375 18.0583L19.2968 12.199C19.427 12.0688 19.5776 12.0037 19.7485 12.0037C19.9194 12.0037 20.0618 12.0688 20.1757 12.199L21.079 13.0779C21.193 13.1918 21.2499 13.3383 21.2499 13.5173C21.2499 13.6964 21.193 13.8429 21.079 13.9568L13.8769 21.1345C13.763 21.2647 13.6165 21.3298 13.4375 21.3298C13.2584 21.3298 13.1119 21.2647 12.998 21.1345Z" fill="#36B37E"/>
</g>
</svg>
